<?xml version="1.0" encoding="UTF-8" standalone="no"?>
<svg
   xmlns:dc="http://purl.org/dc/elements/1.1/"
   xmlns:cc="http://creativecommons.org/ns#"
   xmlns:rdf="http://www.w3.org/1999/02/22-rdf-syntax-ns#"
   xmlns:svg="http://www.w3.org/2000/svg"
   xmlns="http://www.w3.org/2000/svg"
   xmlns:sodipodi="http://sodipodi.sourceforge.net/DTD/sodipodi-0.dtd"
   xmlns:inkscape="http://www.inkscape.org/namespaces/inkscape"
   style="overflow:visible"
   xml:space="preserve"
   enable-background="new 0 0 285.483 172.698"
   overflow="visible"
   viewBox="0 0 744.09448 1052.3622"
   height="297mm"
   width="210mm"
   id="レイヤー_1"
   version="1.1"
   inkscape:version="0.91 r13725"
   sodipodi:docname="develhack-template-confidential-1.svg"><sodipodi:namedview
     pagecolor="#ffffff"
     bordercolor="#666666"
     borderopacity="1"
     objecttolerance="10"
     gridtolerance="10"
     guidetolerance="10"
     inkscape:pageopacity="0"
     inkscape:pageshadow="2"
     inkscape:window-width="1920"
     inkscape:window-height="1017"
     id="namedview64"
     showgrid="false"
     inkscape:zoom="7.2407734"
     inkscape:cx="23.202902"
     inkscape:cy="10.031821"
     inkscape:window-x="-8"
     inkscape:window-y="-8"
     inkscape:window-maximized="1"
     inkscape:current-layer="レイヤー_1" /><metadata
     id="metadata113"><rdf:RDF><cc:Work
         rdf:about=""><dc:format>image/svg+xml</dc:format><dc:type
           rdf:resource="http://purl.org/dc/dcmitype/StillImage" /><dc:title /></cc:Work></rdf:RDF></metadata><defs
     id="defs111" /><switch
     transform="matrix(0.5744965,0,0,0.5744965,522.92284,71.259939)"
     id="switch3"><g
       id="g5"><g
         id="g7"><g
           id="g9"><g
             id="g11"><g
               id="g13"><g
                 id="g15"
                 enable-background="new    "><g
                   id="g17"><radialGradient
                     gradientUnits="userSpaceOnUse"
                     r="213.49451"
                     cy="-40.045898"
                     cx="212.86571"
                     id="XMLID_9_"><stop
                       id="stop20"
                       style="stop-color:#2DB8EC"
                       offset="0" /><stop
                       id="stop22"
                       style="stop-color:#002D9D"
                       offset="1" /></radialGradient><polygon
                     style="fill:url(#XMLID_9_)"
                     id="polygon24"
                     points="192.489,63.835 181.586,57.392 175.707,43.512 180.903,37.663 190.762,44.251 196.446,56.604 " /></g><g
                   id="g26"><radialGradient
                     gradientUnits="userSpaceOnUse"
                     r="213.5248"
                     cy="-40.057598"
                     cx="212.8638"
                     id="XMLID_10_"><stop
                       id="stop29"
                       style="stop-color:#2DB8EC"
                       offset="0" /><stop
                       id="stop31"
                       style="stop-color:#002D9D"
                       offset="1" /></radialGradient><polygon
                     style="fill:url(#XMLID_10_)"
                     id="polygon33"
                     points="171.99,39.015 159.975,31.323 154.731,18.11 161.524,14.039 172.282,21.651 177.471,33.476 " /></g><g
                   id="g35"><radialGradient
                     gradientUnits="userSpaceOnUse"
                     r="213.5002"
                     cy="-40.047901"
                     cx="212.86571"
                     id="XMLID_11_"><stop
                       id="stop38"
                       style="stop-color:#2DB8EC"
                       offset="0" /><stop
                       id="stop40"
                       style="stop-color:#002D9D"
                       offset="1" /></radialGradient><polygon
                     style="fill:url(#XMLID_11_)"
                     id="polygon42"
                     points="195.182,94.354 182.664,88.497 175.827,71.273 181.755,62.312 192.92,68.691 199.475,83.627 " /></g></g><g
                 id="g44"><radialGradient
                   gradientUnits="userSpaceOnUse"
                   r="213.50861"
                   cy="-40.0527"
                   cx="212.86279"
                   id="XMLID_12_"><stop
                     id="stop47"
                     style="stop-color:#2DB8EC"
                     offset="0" /><stop
                     id="stop49"
                     style="stop-color:#002D9D"
                     offset="1" /></radialGradient><polygon
                   style="fill:url(#XMLID_12_)"
                   id="polygon51"
                   points="147.113,37.036 131.504,27.818 126.455,12.403 136.746,8.159 150.308,17.216 155.542,30.778 " /></g><g
                 id="g53"><radialGradient
                   gradientUnits="userSpaceOnUse"
                   r="213.5006"
                   cy="-40.0508"
                   cx="212.85989"
                   id="XMLID_13_"><stop
                     id="stop56"
                     style="stop-color:#2DB8EC"
                     offset="0" /><stop
                     id="stop58"
                     style="stop-color:#002D9D"
                     offset="1" /></radialGradient><polygon
                   style="fill:url(#XMLID_13_)"
                   id="polygon60"
                   points="111.696,34.221 90.163,22.73 86.008,4.242 102.371,0 120.291,11.158 125.25,27.049 " /></g><g
                 id="g62"><radialGradient
                   gradientUnits="userSpaceOnUse"
                   r="213.4989"
                   cy="-40.047901"
                   cx="212.85989"
                   id="XMLID_14_"><stop
                     id="stop65"
                     style="stop-color:#2DB8EC"
                     offset="0" /><stop
                     id="stop67"
                     style="stop-color:#002D9D"
                     offset="1" /></radialGradient><polygon
                   style="fill:url(#XMLID_14_)"
                   id="polygon69"
                   points="141.872,69.438 122.796,60.516 117.193,40.633 130.16,32.848 146.297,42.063 152.25,58.95 " /></g><g
                 id="g71"><radialGradient
                   gradientUnits="userSpaceOnUse"
                   r="213.5069"
                   cy="-40.0518"
                   cx="212.86079"
                   id="XMLID_15_"><stop
                     id="stop74"
                     style="stop-color:#2DB8EC"
                     offset="0" /><stop
                     id="stop76"
                     style="stop-color:#002D9D"
                     offset="1" /></radialGradient><polygon
                   style="fill:url(#XMLID_15_)"
                   id="polygon78"
                   points="170.911,103.314 154.089,96.77 147.157,75.604 156.99,64.548 171.434,71.937 178.315,89.755 " /></g><g
                 id="g80"><radialGradient
                   gradientUnits="userSpaceOnUse"
                   r="213.51199"
                   cy="-40.056599"
                   cx="212.85789"
                   id="XMLID_16_"><stop
                     id="stop83"
                     style="stop-color:#2DB8EC"
                     offset="0" /><stop
                     id="stop85"
                     style="stop-color:#002D9D"
                     offset="1" /></radialGradient><polygon
                   style="fill:url(#XMLID_16_)"
                   id="polygon87"
                   points="134.214,116.861 109.7,109.628 103.533,82.193 120.85,67.81 140.715,76.578 147.604,98.648 " /></g></g><g
               id="g89"><path
                 style="fill:#616161"
                 id="path91"
                 d="m 52.812,142.21 c -0.978,0 -1.978,0.169 -2.964,0.506 -2.603,0.88 -4.801,2.809 -6.037,5.295 -0.474,0.966 -0.784,1.939 -0.917,2.896 L 41.053,164 c -0.135,0.957 -0.098,1.932 0.108,2.896 0.535,2.482 2.19,4.412 4.543,5.291 0.9,0.338 1.852,0.51 2.822,0.51 0,0 17.05,0 17.41,0 0.047,-0.326 0.561,-3.984 0.607,-4.311 -0.36,0 -12.413,0 -12.413,0 -2.409,0 -4.102,-1.961 -3.77,-4.369 l 0.62,-4.411 c 0,0 19.104,0 19.457,0 0.047,-0.34 1.221,-8.696 1.221,-8.696 0.135,-0.961 0.099,-1.937 -0.107,-2.902 -0.538,-2.484 -2.197,-4.413 -4.546,-5.293 -0.894,-0.337 -1.845,-0.506 -2.823,-0.506 l -11.37,0 z m -0.61,8.713 c 0.362,-2.428 2.606,-4.405 5.003,-4.405 l 1.373,0 c 2.409,0 4.104,1.961 3.772,4.369 l -0.622,4.411 -10.142,0 0.616,-4.375 z"
                 inkscape:connector-curvature="0" /><path
                 style="fill:#616161"
                 id="path93"
                 d="m 118.21,142.21 c -0.978,0 -1.978,0.169 -2.966,0.506 -2.601,0.88 -4.798,2.809 -6.038,5.295 -0.472,0.966 -0.783,1.939 -0.917,2.896 L 106.449,164 c -0.135,0.957 -0.098,1.932 0.108,2.896 0.537,2.484 2.193,4.414 4.543,5.291 0.9,0.338 1.85,0.51 2.825,0.51 0,0 17.047,0 17.409,0 0.046,-0.326 0.56,-3.984 0.606,-4.311 -0.359,0 -12.411,0 -12.411,0 -2.41,0 -4.104,-1.961 -3.772,-4.369 l 0.62,-4.411 c 0,0 19.101,0 19.455,0 0.048,-0.34 1.223,-8.696 1.223,-8.696 0.134,-0.961 0.099,-1.937 -0.107,-2.902 -0.535,-2.484 -2.191,-4.413 -4.546,-5.293 -0.893,-0.337 -1.844,-0.506 -2.823,-0.506 l -11.369,0 z m -0.612,8.713 c 0.362,-2.428 2.609,-4.405 5.005,-4.405 l 1.373,0 c 2.409,0 4.101,1.961 3.769,4.369 l -0.618,4.411 -10.145,0 0.616,-4.375 z"
                 inkscape:connector-curvature="0" /><path
                 style="fill:#616161"
                 id="path95"
                 d="m 98.118,142.21 c -0.121,0.238 -9.593,19.011 -9.593,19.011 0,0 -4.195,-18.772 -4.248,-19.011 -0.245,0 -8.677,0 -9.167,0 0.106,0.484 6.758,30.248 6.813,30.488 0.246,0 9.732,0 9.978,0 0.123,-0.24 15.141,-30.003 15.383,-30.488 -0.489,0 -8.923,0 -9.166,0 z"
                 inkscape:connector-curvature="0" /><path
                 style="fill:#616161"
                 id="path97"
                 d="m 5.077,136.573 c -0.05,0.361 -5.026,35.763 -5.077,36.125 0.364,0 26.526,0 26.526,0 0.974,0 1.973,-0.172 2.969,-0.51 2.598,-0.877 4.796,-2.807 6.032,-5.291 0.476,-0.965 0.789,-1.939 0.922,-2.896 l 2.632,-18.731 c 0.135,-0.956 0.097,-1.932 -0.109,-2.896 -0.536,-2.483 -2.192,-4.413 -4.542,-5.292 -0.902,-0.338 -1.855,-0.509 -2.827,-0.509 10e-4,0 -26.163,0 -26.526,0 z m 8.709,4.31 12.213,0 c 2.407,0 4.1,1.959 3.773,4.367 l -2.638,18.766 c -0.351,2.41 -2.594,4.371 -5.002,4.371 l -12.211,0 3.865,-27.504 z"
                 inkscape:connector-curvature="0" /><path
                 style="fill:#616161"
                 id="path99"
                 d="m 256.068,136.07 c -0.051,0.361 -5.097,36.266 -5.147,36.627 0.347,0 8.962,0 9.311,0 0.05,-0.357 1.825,-12.995 1.825,-12.995 l 4.565,0 c 2.158,0.229 3.912,1.9 4.193,3.973 -0.002,-0.018 0,-0.008 0.523,4.09 0,0 0.597,4.674 0.631,4.932 0.268,0 8.776,0 9.229,0 -0.057,-0.439 -1.072,-8.412 -1.072,-8.412 -0.27,-2.41 -1.19,-4.425 -2.745,-5.994 l -0.83,-0.839 1.065,-0.836 c 1.994,-1.57 3.479,-3.579 4.422,-5.979 0,0 2.975,-7.282 3.445,-8.429 -0.451,0 -8.961,0 -9.229,0 -0.109,0.266 -3.684,9.015 -3.684,9.015 -0.871,2.078 -3.096,3.75 -5.296,3.981 l -4.587,0 c 0,0 2.64,-18.774 2.689,-19.136 -0.344,0.002 -8.961,0.002 -9.308,0.002 z"
                 inkscape:connector-curvature="0" /><path
                 style="fill:#616161"
                 id="path101"
                 d="m 233.697,142.21 c -0.976,0 -1.978,0.171 -2.978,0.506 -2.561,0.872 -4.814,2.85 -6.025,5.295 -0.473,0.954 -0.782,1.927 -0.918,2.896 L 221.934,164 c -0.135,0.969 -0.099,1.941 0.105,2.898 0.537,2.482 2.193,4.412 4.545,5.293 0.895,0.334 1.846,0.506 2.826,0.506 0,0 16.545,0 16.904,0 0.044,-0.326 0.56,-3.982 0.605,-4.311 -0.357,0 -11.907,0 -11.907,0 -2.413,0 -4.104,-1.959 -3.771,-4.369 l 1.848,-13.138 c 0.355,-2.406 2.598,-4.36 4.995,-4.36 0,0 11.552,0 11.907,0 0.047,-0.327 0.561,-3.984 0.607,-4.31 -0.358,0.001 -16.901,0.001 -16.901,0.001 z"
                 inkscape:connector-curvature="0" /><path
                 style="fill:#616161"
                 id="path103"
                 d="m 143.673,136.571 c -0.05,0.363 -5.026,35.765 -5.077,36.126 0.35,0 8.966,0 9.313,0 0.049,-0.361 5.026,-35.763 5.075,-36.126 -0.345,0 -8.961,0 -9.311,0 z"
                 inkscape:connector-curvature="0" /><path
                 style="fill:#616161"
                 id="path105"
                 d="m 199.945,142.21 c -0.976,0 -1.976,0.171 -2.97,0.506 -2.6,0.882 -4.795,2.812 -6.032,5.295 -0.478,0.964 -0.785,1.937 -0.921,2.896 L 188.181,164 c -0.134,0.957 -0.098,1.932 0.109,2.898 0.537,2.482 2.193,4.412 4.546,5.293 0.893,0.334 1.842,0.506 2.824,0.506 0,0 5.121,0 5.469,0 0.045,-0.326 0.56,-3.982 0.605,-4.311 -0.193,0 -0.471,0 -0.471,0 -2.41,0 -4.104,-1.959 -3.771,-4.367 l 1.846,-13.14 c 0.358,-2.406 2.602,-4.36 4.999,-4.36 l 6.137,0 c 0,0 -3.63,25.813 -3.68,26.178 0.349,0 8.966,0 9.312,0 0.051,-0.365 4.237,-30.148 4.286,-30.488 -0.354,0.001 -20.447,0.001 -20.447,0.001 z"
                 inkscape:connector-curvature="0" /><path
                 style="fill:#616161"
                 id="path107"
                 d="m 157.692,135.863 c -0.052,0.363 -5.127,36.473 -5.177,36.834 0.347,0 8.959,0 9.306,0 0.051,-0.365 3.68,-26.18 3.68,-26.18 l 6.832,0 c 2.404,0 4.097,1.958 3.776,4.367 0,0 -3.015,21.452 -3.065,21.813 0.348,0 8.964,0 9.312,0 0.05,-0.361 3.063,-21.792 3.063,-21.792 0.134,-0.956 0.095,-1.93 -0.11,-2.897 -0.537,-2.486 -2.193,-4.416 -4.547,-5.295 -0.896,-0.335 -1.846,-0.506 -2.824,-0.506 l -11.83,0 c 0,0 0.844,-5.998 0.893,-6.345 -0.348,0.001 -8.961,0.001 -9.309,0.001 z"
                 inkscape:connector-curvature="0" /></g></g></g></g></g></switch><text
     id="text4189"
     y="1037.8618"
     x="17.732494"
     style="font-style:normal;font-weight:normal;font-size:40px;line-height:125%;font-family:Sans;letter-spacing:0px;word-spacing:0px;fill:#666666;fill-opacity:1;stroke:none;stroke-width:1px;stroke-linecap:butt;stroke-linejoin:miter;stroke-opacity:1;"
     xml:space="preserve"
     sodipodi:linespacing="125%"><tspan
       style="font-style:normal;font-variant:normal;font-weight:normal;font-stretch:normal;font-size:12.5px;font-family:Century;-inkscape-font-specification:Century;fill:#666666;fill-opacity:1"
       y="1037.8618"
       x="17.732494"
       id="tspan4191">{copyright}</tspan></text>
<g
     id="g4289"
     transform="translate(-10.034607,7.6034185)"><text
       sodipodi:linespacing="125%"
       id="text4267"
       y="31.232025"
       x="565.80554"
       style="font-style:normal;font-weight:normal;font-size:19.87922859px;line-height:125%;font-family:Sans;letter-spacing:0px;word-spacing:0px;fill:#dd0000;fill-opacity:1;stroke:none;stroke-width:1px;stroke-linecap:butt;stroke-linejoin:miter;stroke-opacity:1"
       xml:space="preserve"><tspan
         style="font-style:normal;font-variant:normal;font-weight:normal;font-stretch:normal;font-family:Century;-inkscape-font-specification:Century;fill:#dd0000;fill-opacity:1;stroke:none;stroke-opacity:1"
         y="31.232025"
         x="565.80554"
         id="tspan4269"
         sodipodi:role="line">CONFIDENTIAL</tspan></text>
<rect
       ry="4.4924297"
       rx="4.6139398"
       y="11.386299"
       x="560.03076"
       height="25.393553"
       width="175.00961"
       id="rect4271"
       style="opacity:1;fill:none;fill-opacity:1;stroke:#dd0000;stroke-width:1.5;stroke-linecap:round;stroke-linejoin:round;stroke-miterlimit:4;stroke-dasharray:none;stroke-opacity:1" /></g></svg>