<?xml version="1.0" encoding="UTF-8" standalone="no"?>
<svg
   xmlns:dc="http://purl.org/dc/elements/1.1/"
   xmlns:cc="http://creativecommons.org/ns#"
   xmlns:rdf="http://www.w3.org/1999/02/22-rdf-syntax-ns#"
   xmlns:svg="http://www.w3.org/2000/svg"
   xmlns="http://www.w3.org/2000/svg"
   xmlns:sodipodi="http://sodipodi.sourceforge.net/DTD/sodipodi-0.dtd"
   xmlns:inkscape="http://www.inkscape.org/namespaces/inkscape"
   style="overflow:visible"
   xml:space="preserve"
   enable-background="new 0 0 285.483 172.698"
   overflow="visible"
   viewBox="0 0 744.09448 1052.3622"
   height="1052.3622"
   width="744.09448"
   id="レイヤー_1"
   version="1.1"
   inkscape:version="0.91 r13725"
   sodipodi:docname="develhack-template-2.svg"><sodipodi:namedview
     pagecolor="#ffffff"
     bordercolor="#666666"
     borderopacity="1"
     objecttolerance="10"
     gridtolerance="10"
     guidetolerance="10"
     inkscape:pageopacity="0"
     inkscape:pageshadow="2"
     inkscape:window-width="1920"
     inkscape:window-height="1017"
     id="namedview64"
     showgrid="false"
     inkscape:zoom="0.31714784"
     inkscape:cx="491.15711"
     inkscape:cy="331.44322"
     inkscape:window-x="-8"
     inkscape:window-y="-8"
     inkscape:window-maximized="1"
     inkscape:current-layer="レイヤー_1"
     inkscape:snap-bbox="true"
     inkscape:snap-page="true"
     units="px" /><metadata
     id="metadata113"><rdf:RDF><cc:Work
         rdf:about=""><dc:format>image/svg+xml</dc:format><dc:type
           rdf:resource="http://purl.org/dc/dcmitype/StillImage" /><dc:title /></cc:Work></rdf:RDF></metadata><defs
     id="defs111" /><text
     id="text4189"
     y="1037.8623"
     x="17.732494"
     style="font-style:normal;font-weight:normal;font-size:40px;line-height:125%;font-family:Sans;letter-spacing:0px;word-spacing:0px;fill:#666666;fill-opacity:1;stroke:none;stroke-width:1px;stroke-linecap:butt;stroke-linejoin:miter;stroke-opacity:1;"
     xml:space="preserve"
     sodipodi:linespacing="125%"><tspan
       style="font-style:normal;font-variant:normal;font-weight:normal;font-stretch:normal;font-size:12.5px;font-family:Century;-inkscape-font-specification:Century;fill:#666666;fill-opacity:1"
       y="1037.8623"
       x="17.732494"
       id="tspan4191">{copyright}</tspan></text>
<path
     style="fill:none;fill-rule:evenodd;stroke:#cccccc;stroke-width:1.00007331px;stroke-linecap:butt;stroke-linejoin:miter;stroke-opacity:1"
     d="m 0,1012.9484 744.09449,0"
     id="path4148-2"
     inkscape:connector-curvature="0" /><path
     style="overflow:visible;fill:none;fill-rule:evenodd;stroke:#cccccc;stroke-width:1.00007331px;stroke-linecap:butt;stroke-linejoin:miter;stroke-opacity:1"
     d="m 0,63.338066 744.09449,0"
     id="path4148-2-1"
     inkscape:connector-curvature="0" /><g
     style="overflow:visible"
     id="g4247"
     transform="matrix(0.47672491,0,0,0.47672491,565.3192,14.457464)"><switch
       id="switch4137"><g
         id="g4139"><g
           id="g4141"><g
             id="g4143"><g
               id="g4145"><g
                 id="g4147"
                 enable-background="new    "><g
                   id="g4149"><radialGradient
                     gradientUnits="userSpaceOnUse"
                     r="122.3215"
                     cy="-22.9424"
                     cx="72.681602"
                     id="XMLID_9_"><stop
                       id="stop4152"
                       style="stop-color:#2DB8EC"
                       offset="0" /><stop
                       id="stop4154"
                       style="stop-color:#002D9D"
                       offset="1" /></radialGradient><polygon
                     id="polygon4156"
                     points="54.762,32.884 51.393,24.931 54.371,21.581 60.019,25.356 63.274,32.434 61.008,36.576 "
                     style="fill:url(#XMLID_9_)" /></g><g
                   id="g4158"><radialGradient
                     gradientUnits="userSpaceOnUse"
                     r="122.3319"
                     cy="-22.946301"
                     cx="72.683601"
                     id="XMLID_10_"><stop
                       id="stop4161"
                       style="stop-color:#2DB8EC"
                       offset="0" /><stop
                       id="stop4163"
                       style="stop-color:#002D9D"
                       offset="1" /></radialGradient><polygon
                     id="polygon4165"
                     points="42.38,17.947 39.375,10.378 43.267,8.046 49.431,12.406 52.404,19.182 49.264,22.354 "
                     style="fill:url(#XMLID_10_)" /></g><g
                   id="g4167"><radialGradient
                     gradientUnits="userSpaceOnUse"
                     r="122.3274"
                     cy="-22.945299"
                     cx="72.683601"
                     id="XMLID_11_"><stop
                       id="stop4170"
                       style="stop-color:#2DB8EC"
                       offset="0" /><stop
                       id="stop4172"
                       style="stop-color:#002D9D"
                       offset="1" /></radialGradient><polygon
                     id="polygon4174"
                     points="55.38,50.706 51.463,40.838 54.858,35.703 61.256,39.358 65.012,47.915 62.552,54.062 "
                     style="fill:url(#XMLID_11_)" /></g></g><g
                 id="g4176"><radialGradient
                   gradientUnits="userSpaceOnUse"
                   r="122.3367"
                   cy="-22.9482"
                   cx="72.684601"
                   id="XMLID_12_"><stop
                     id="stop4179"
                     style="stop-color:#2DB8EC"
                     offset="0" /><stop
                     id="stop4181"
                     style="stop-color:#002D9D"
                     offset="1" /></radialGradient><polygon
                   id="polygon4183"
                   points="26.067,15.939 23.173,7.109 29.07,4.676 36.841,9.867 39.84,17.636 35.012,21.222 "
                   style="fill:url(#XMLID_12_)" /></g><g
                 id="g4185"><radialGradient
                   gradientUnits="userSpaceOnUse"
                   r="122.3241"
                   cy="-22.9482"
                   cx="72.674797"
                   id="XMLID_13_"><stop
                     id="stop4188"
                     style="stop-color:#2DB8EC"
                     offset="0" /><stop
                     id="stop4190"
                     style="stop-color:#002D9D"
                     offset="1" /></radialGradient><polygon
                   id="polygon4192"
                   points="2.381,13.023 0,2.432 9.376,0 19.642,6.395 22.482,15.499 14.718,19.608 "
                   style="fill:url(#XMLID_13_)" /></g><g
                 id="g4194"><radialGradient
                   gradientUnits="userSpaceOnUse"
                   r="122.3252"
                   cy="-22.945299"
                   cx="72.680702"
                   id="XMLID_14_"><stop
                     id="stop4197"
                     style="stop-color:#2DB8EC"
                     offset="0" /><stop
                     id="stop4199"
                     style="stop-color:#002D9D"
                     offset="1" /></radialGradient><polygon
                   id="polygon4201"
                   points="21.077,34.674 17.867,23.282 25.297,18.82 34.54,24.104 37.954,33.777 32.008,39.785 "
                   style="fill:url(#XMLID_14_)" /></g><g
                 id="g4203"><radialGradient
                   gradientUnits="userSpaceOnUse"
                   r="122.3316"
                   cy="-22.9482"
                   cx="72.681602"
                   id="XMLID_15_"><stop
                     id="stop4206"
                     style="stop-color:#2DB8EC"
                     offset="0" /><stop
                     id="stop4208"
                     style="stop-color:#002D9D"
                     offset="1" /></radialGradient><polygon
                   id="polygon4210"
                   points="39.008,55.445 35.035,43.319 40.669,36.983 48.944,41.219 52.888,51.427 48.645,59.195 "
                   style="fill:url(#XMLID_15_)" /></g><g
                 id="g4212"><radialGradient
                   gradientUnits="userSpaceOnUse"
                   r="122.3342"
                   cy="-22.950701"
                   cx="72.679703"
                   id="XMLID_16_"><stop
                     id="stop4215"
                     style="stop-color:#2DB8EC"
                     offset="0" /><stop
                     id="stop4217"
                     style="stop-color:#002D9D"
                     offset="1" /></radialGradient><polygon
                   id="polygon4219"
                   points="13.573,62.812 10.04,47.094 19.963,38.853 31.345,43.878 35.291,56.521 27.62,66.957 "
                   style="fill:url(#XMLID_16_)" /></g></g><g
               id="g4221"><path
                 id="path4223"
                 d="m 133.955,23.217 c -0.831,0 -1.681,0.145 -2.52,0.43 -2.212,0.748 -4.082,2.389 -5.132,4.501 -0.403,0.822 -0.666,1.65 -0.78,2.462 l -1.566,11.134 c -0.114,0.814 -0.081,1.642 0.093,2.462 0.456,2.113 1.863,3.752 3.864,4.5 0.764,0.287 1.573,0.432 2.399,0.432 0,0 14.494,0 14.803,0 0.039,-0.277 0.474,-3.387 0.515,-3.664 -0.306,0 -10.553,0 -10.553,0 -2.049,0 -3.489,-1.667 -3.207,-3.715 l 0.528,-3.75 c 0,0 16.24,0 16.542,0 0.038,-0.288 1.038,-7.394 1.038,-7.394 0.115,-0.816 0.084,-1.647 -0.092,-2.469 -0.455,-2.11 -1.867,-3.751 -3.864,-4.499 -0.761,-0.285 -1.57,-0.43 -2.401,-0.43 l -9.667,0 z m -0.517,7.408 c 0.309,-2.065 2.215,-3.745 4.252,-3.745 l 1.167,0 c 2.048,0 3.488,1.665 3.207,3.713 l -0.527,3.752 -8.623,0 0.524,-3.72 z"
                 inkscape:connector-curvature="0"
                 style="fill:#616161" /><path
                 id="path4225"
                 d="m 189.556,23.217 c -0.83,0 -1.68,0.145 -2.52,0.43 -2.213,0.748 -4.082,2.389 -5.135,4.501 -0.403,0.822 -0.665,1.65 -0.78,2.462 l -1.563,11.134 c -0.117,0.814 -0.083,1.642 0.091,2.462 0.459,2.113 1.865,3.753 3.863,4.5 0.765,0.287 1.574,0.432 2.4,0.432 0,0 14.494,0 14.802,0 0.039,-0.277 0.475,-3.387 0.516,-3.664 -0.307,0 -10.553,0 -10.553,0 -2.046,0 -3.486,-1.667 -3.206,-3.715 l 0.527,-3.75 c 0,0 16.241,0 16.541,0 0.038,-0.288 1.039,-7.394 1.039,-7.394 0.114,-0.816 0.084,-1.647 -0.093,-2.469 -0.455,-2.11 -1.86,-3.751 -3.863,-4.499 -0.758,-0.285 -1.568,-0.43 -2.398,-0.43 l -9.668,0 z m -0.521,7.408 c 0.309,-2.065 2.218,-3.745 4.256,-3.745 l 1.168,0 c 2.048,0 3.485,1.665 3.204,3.713 l -0.529,3.752 -8.622,0 0.523,-3.72 z"
                 inkscape:connector-curvature="0"
                 style="fill:#616161" /><path
                 id="path4227"
                 d="m 172.474,23.217 c -0.103,0.202 -8.155,16.164 -8.155,16.164 0,0 -3.568,-15.962 -3.612,-16.164 -0.206,0 -7.376,0 -7.792,0 0.087,0.412 5.744,25.717 5.793,25.92 0.208,0 8.272,0 8.481,0 0.104,-0.203 12.873,-25.508 13.077,-25.92 -0.415,0 -7.586,0 -7.792,0 z"
                 inkscape:connector-curvature="0"
                 style="fill:#616161" /><path
                 id="path4229"
                 d="m 93.372,18.425 c -0.042,0.308 -4.273,30.403 -4.315,30.712 0.307,0 22.551,0 22.551,0 0.828,0 1.678,-0.145 2.525,-0.432 2.209,-0.747 4.077,-2.387 5.129,-4.5 0.403,-0.82 0.668,-1.647 0.782,-2.462 l 2.238,-15.925 c 0.114,-0.814 0.082,-1.643 -0.093,-2.462 -0.457,-2.112 -1.863,-3.753 -3.861,-4.499 -0.768,-0.287 -1.577,-0.433 -2.404,-0.433 0,0.001 -22.243,0.001 -22.552,0.001 z m 7.403,3.665 10.385,0 c 2.045,0 3.486,1.664 3.209,3.712 l -2.243,15.954 c -0.298,2.05 -2.206,3.717 -4.251,3.717 l -10.385,0 3.285,-23.383 z"
                 inkscape:connector-curvature="0"
                 style="fill:#616161" /><path
                 id="path4231"
                 d="m 306.759,17.997 c -0.042,0.309 -4.333,30.831 -4.377,31.14 0.295,0 7.623,0 7.917,0 0.043,-0.304 1.553,-11.048 1.553,-11.048 l 3.883,0 c 1.833,0.195 3.325,1.617 3.564,3.378 -0.002,-0.014 0,-0.008 0.442,3.477 0,0 0.508,3.974 0.537,4.193 0.229,0 7.463,0 7.846,0 -0.049,-0.374 -0.911,-7.152 -0.911,-7.152 -0.229,-2.048 -1.011,-3.76 -2.333,-5.095 l -0.706,-0.713 0.904,-0.711 c 1.697,-1.334 2.961,-3.043 3.761,-5.082 0,0 2.529,-6.191 2.929,-7.167 -0.383,0 -7.618,0 -7.846,0 -0.093,0.226 -3.131,7.665 -3.131,7.665 -0.741,1.766 -2.632,3.188 -4.504,3.385 l -3.897,0 c 0,0 2.243,-15.964 2.286,-16.27 -0.295,0 -7.622,0 -7.917,0 z"
                 inkscape:connector-curvature="0"
                 style="fill:#616161" /><path
                 id="path4233"
                 d="m 287.74,23.217 c -0.829,0 -1.682,0.145 -2.531,0.432 -2.176,0.739 -4.091,2.423 -5.122,4.499 -0.402,0.812 -0.665,1.641 -0.78,2.464 l -1.567,11.132 c -0.114,0.823 -0.084,1.65 0.091,2.464 0.456,2.111 1.864,3.751 3.864,4.498 0.761,0.287 1.569,0.432 2.403,0.432 0,0 14.065,0 14.37,0 0.04,-0.277 0.476,-3.386 0.516,-3.664 -0.304,0 -10.125,0 -10.125,0 -2.051,0 -3.486,-1.665 -3.203,-3.715 l 1.569,-11.17 c 0.302,-2.045 2.207,-3.707 4.249,-3.707 0,0 9.819,0 10.122,0 0.04,-0.277 0.476,-3.387 0.516,-3.664 -0.305,-0.001 -14.372,-0.001 -14.372,-0.001 z"
                 inkscape:connector-curvature="0"
                 style="fill:#616161" /><path
                 id="path4235"
                 d="m 211.205,18.424 c -0.043,0.308 -4.273,30.404 -4.316,30.713 0.296,0 7.62,0 7.918,0 0.042,-0.309 4.273,-30.405 4.314,-30.713 -0.295,0 -7.619,0 -7.916,0 z"
                 inkscape:connector-curvature="0"
                 style="fill:#616161" /><path
                 id="path4237"
                 d="m 259.047,23.217 c -0.832,0 -1.682,0.145 -2.526,0.432 -2.208,0.749 -4.078,2.39 -5.128,4.502 -0.404,0.816 -0.669,1.646 -0.783,2.461 l -1.565,11.132 c -0.113,0.814 -0.083,1.644 0.094,2.464 0.456,2.111 1.864,3.751 3.864,4.498 0.759,0.287 1.565,0.432 2.401,0.432 0,0 4.355,0 4.649,0 0.038,-0.277 0.477,-3.386 0.515,-3.664 -0.163,0 -0.399,0 -0.399,0 -2.05,0 -3.489,-1.665 -3.207,-3.714 l 1.569,-11.171 c 0.303,-2.045 2.21,-3.707 4.253,-3.707 l 5.212,0 c 0,0 -3.084,21.947 -3.126,22.256 0.297,0 7.623,0 7.915,0 0.045,-0.309 3.605,-25.631 3.646,-25.92 -0.302,-0.001 -17.384,-0.001 -17.384,-0.001 z"
                 inkscape:connector-curvature="0"
                 style="fill:#616161" /><path
                 id="path4239"
                 d="m 223.121,17.821 c -0.041,0.309 -4.356,31.007 -4.4,31.315 0.297,0 7.617,0 7.912,0 0.044,-0.309 3.128,-22.258 3.128,-22.258 l 5.811,0 c 2.044,0 3.481,1.664 3.21,3.713 0,0 -2.563,18.236 -2.606,18.545 0.295,0 7.62,0 7.915,0 0.045,-0.309 2.606,-18.527 2.606,-18.527 0.112,-0.812 0.081,-1.64 -0.095,-2.462 -0.457,-2.114 -1.865,-3.755 -3.864,-4.502 -0.765,-0.285 -1.57,-0.43 -2.401,-0.43 l -10.058,0 c 0,0 0.717,-5.1 0.758,-5.395 -0.296,0.001 -7.617,0.001 -7.916,0.001 z"
                 inkscape:connector-curvature="0"
                 style="fill:#616161" /></g></g></g></g></switch></g></svg>